<?xml version="1.0" encoding="utf-8"?><svg viewBox="0 0 502.66 502.66" xmlns="http://www.w3.org/2000/svg" xmlns:xlink="http://www.w3.org/1999/xlink"><style>:root>svg{display:none}:root>svg:target{display:block}</style><svg viewBox="0 0 15 27" id="facebook" xmlns="http://www.w3.org/2000/svg"><path d="M9.762 27V14.704h4.146l.616-4.814H9.762V6.823c0-1.389.386-2.34 2.38-2.34h2.525V.191a33.48 33.48 0 00-3.7-.19C7.302 0 4.786 2.238 4.786 6.347V9.88H.666v4.814h4.129V27h4.967z"/></svg><svg viewBox="0 0 29 27" id="gmail" xmlns="http://www.w3.org/2000/svg"><path d="M2.148 6.733c0 2.292.778 3.946 2.31 4.917 1.257.798 2.713.917 3.47.917.184 0 .332-.009.435-.015 0 0-.24 1.54.92 3.062H9.23c-2.01 0-8.563.413-8.563 5.717C.667 26.725 6.686 27 7.894 27c.095 0 .151-.003.151-.003.013 0 .098.003.246.003.775 0 2.778-.095 4.638-.986 2.413-1.151 3.637-3.16 3.637-5.96 0-2.706-1.864-4.317-3.225-5.495-.831-.72-1.55-1.34-1.55-1.943 0-.613.526-1.075 1.188-1.66 1.074-.943 2.088-2.288 2.088-4.832 0-2.235-.295-3.737-2.111-4.69.188-.095.859-.164 1.19-.21.983-.132 2.422-.282 2.422-1.072V0h-7.17c-.071.003-7.25.264-7.25 6.733zM13.72 20.56c.137 2.157-1.738 3.748-4.555 3.949-2.86.207-5.215-1.06-5.352-3.216-.067-1.037.396-2.05 1.302-2.858.918-.817 2.18-1.324 3.551-1.423.162-.01.323-.019.483-.019 2.649.002 4.442 1.533 4.571 3.567zM11.85 5.256c.703 2.436-.359 4.98-2.052 5.45a2.24 2.24 0 01-.598.08c-1.55 0-3.085-1.543-3.656-3.67-.318-1.191-.291-2.238.073-3.24.357-.99 1.003-1.655 1.813-1.88.195-.054.396-.081.6-.081 1.871 0 3.075.764 3.82 3.34zm12.14 5.176V5.83h-3.117v4.602h-4.677V13.5h4.677v4.602h3.118V13.5h4.677v-3.068H23.99z"/></svg><svg viewBox="0 0 502.664 502.664" id="icon" xmlns="http://www.w3.org/2000/svg"><path d="M153.821 358.226L0 274.337v-46.463l153.821-83.414v54.574L46.636 250.523l107.185 53.431v54.272zm26.273 29.358L282.103 115.08h32.227L212.084 387.584h-31.99zm168.749-29.358v-54.272l107.164-52.999-107.164-52.59v-53.927l153.821 83.522v46.183l-153.821 84.083z"/></svg><svg viewBox="0 0 28 26" id="like" xmlns="http://www.w3.org/2000/svg"><path d="M20.3 0c-2.436 0-4.774 1.134-6.3 2.926C12.474 1.134 10.136 0 7.7 0 3.388 0 0 3.388 0 7.7c0 5.292 4.76 9.604 11.97 16.156L14 25.69l2.03-1.848C23.24 17.304 28 12.992 28 7.7 28 3.388 24.612 0 20.3 0zm-6.16 21.77l-.14.14-.14-.14C7.196 15.736 2.8 11.746 2.8 7.7c0-2.8 2.1-4.9 4.9-4.9 2.156 0 4.256 1.386 4.998 3.304h2.618C16.044 4.186 18.144 2.8 20.3 2.8c2.8 0 4.9 2.1 4.9 4.9 0 4.046-4.396 8.036-11.06 14.07z"/></svg><svg viewBox="0 0 40 40" id="twitter" xmlns="http://www.w3.org/2000/svg"><path d="M33.388 13.328c.022.292.022.582.022.872 0 8.875-6.755 19.102-19.1 19.102A18.969 18.969 0 014 30.287c.54.061 1.06.083 1.622.083a13.45 13.45 0 008.335-2.868 6.727 6.727 0 01-6.279-4.655c.415.061.832.103 1.269.103.601 0 1.206-.083 1.768-.228a6.712 6.712 0 01-5.383-6.589v-.083c.895.498 1.933.81 3.033.852a6.704 6.704 0 01-2.993-5.59c0-1.247.331-2.39.913-3.387a19.095 19.095 0 0013.843 7.025 7.63 7.63 0 01-.166-1.538 6.709 6.709 0 016.713-6.714c1.933 0 3.678.81 4.905 2.12a13.256 13.256 0 004.26-1.621 6.7 6.7 0 01-2.952 3.7 13.456 13.456 0 003.865-1.04 14.407 14.407 0 01-3.365 3.471z"/></svg><svg viewBox="0 0 45 45" id="youtube" xmlns="http://www.w3.org/2000/svg"><path d="M40.763 12.13a4.698 4.698 0 00-3.304-3.31C34.523 8.012 22.776 8 22.776 8s-11.745-.013-14.683.758a4.8 4.8 0 00-3.311 3.333C4.008 15.028 4 21.118 4 21.118s-.007 6.12.761 9.026a4.698 4.698 0 003.306 3.31c2.966.805 14.681.819 14.681.819s11.747.013 14.683-.756a4.716 4.716 0 003.313-3.306c.777-2.934.782-9.022.782-9.022s.038-6.122-.763-9.058zM19.02 26.76l.01-11.25 9.762 5.634-9.772 5.615z"/></svg></svg>